Coordinates
version=1
nRows=6
nColumns=36
inDegrees=yes

Units are S.I. units (second, meters, Newtons, ...)
If the header above contains a line with 'inDegrees', this indicates whether rotational values are in degrees (yes) or radians (no).

endheader
time	pelvis_tilt	pelvis_list	pelvis_rotation	pelvis_tx	pelvis_ty	pelvis_tz	hip_flexion_r	hip_adduction_r	hip_rotation_r	knee_angle_r	knee_angle_r_beta	ankle_angle_r	subtalar_angle_r	mtp_angle_r	hip_flexion_l	hip_adduction_l	hip_rotation_l	knee_angle_l	knee_angle_l_beta	ankle_angle_l	subtalar_angle_l	mtp_angle_l	lumbar_extension	lumbar_bending	lumbar_rotation	arm_flex_r	arm_add_r	arm_rot_r	elbow_flex_r	pro_sup_r	arm_flex_l	arm_add_l	arm_rot_l	elbow_flex_l	pro_sup_l
      0.00000000	      2.03856264	     -0.27160237	      2.13743978	     -0.98858265	      1.29423571	     -0.05251115	     -0.09565441	     -1.56200948	     -2.78733405	      8.71257739	      0.15206316	      7.02482135	     -7.97801345	     -6.19514555	      2.51848826	     -2.33683476	     -2.82203739	      9.60411188	      0.16762337	      9.13656854	     -1.26853485	     -6.19514555	    -10.37524879	      2.10331882	     -2.49521623	      3.95873255	    -11.30412260	     14.27434099	     26.91620666	     73.39912024	      2.52473169	     -8.59811346	     22.58372659	     30.05815780	     66.73350851
      0.00416670	      1.72841605	      0.10360418	      1.71074993	     -0.98435701	      1.29597735	     -0.05568811	      0.28054186	     -1.92181509	     -1.68658129	      9.07718945	      0.15842684	      9.08845040	     -7.57180877	     -6.21042824	      2.35128108	     -1.47217222	     -2.38549325	      9.09517033	      0.15874067	      8.93566450	     -1.31531292	     -6.21042824	     -9.47106825	      1.73604188	     -2.51817231	      4.26091323	    -10.55857925	     13.23381875	     26.89394849	     73.30835351	      2.49796711	     -8.20487255	     22.02263488	     29.89937459	     66.76237035
      0.00833330	      1.06247358	      0.60422591	      1.20265782	     -0.97792359	      1.29531429	     -0.05826512	      0.38213612	     -2.61715096	     -2.28579792	      8.28683630	      0.14463258	      9.43730307	     -6.94763681	     -6.34238129	      2.38455971	     -0.80799090	     -2.69872038	      8.47632181	      0.14793972	      8.87304073	     -1.40818383	     -6.34238129	     -8.49035063	      0.98084687	     -1.46519561	      3.44870335	     -8.91125182	      5.74735862	     28.49216122	     73.85145540	      2.90150420	     -7.86581495	     19.64325763	     29.71006827	     68.33896496
      0.01250000	      1.65055295	      0.85064649	      0.80322778	     -0.97307829	      1.29458857	     -0.06081529	     -0.67653358	     -3.12341188	     -2.44406011	      7.84072689	      0.13684650	      9.90922897	     -6.21862223	     -6.76446607	      0.76672779	     -0.33336071	     -2.55424058	      7.22372673	      0.12607782	      8.94125831	     -1.73860103	     -6.76446607	     -8.79219226	      0.73710571	     -0.67926367	      3.04225196	     -7.99590297	      1.73807468	     29.59459704	     80.17751449	      3.44982358	     -7.83187183	     18.92972842	     29.35222523	     73.84343545
      0.01666670	      1.70831737	      0.96435727	      0.47459513	     -0.97296425	      1.29792821	     -0.05960728	     -1.05255808	     -3.31416338	     -2.39526363	      7.38502451	      0.12889299	      9.89919299	     -6.04733773	     -6.77646195	     -0.04787237	     -0.07309457	     -2.48323976	      6.14251579	      0.10720712	      8.80167786	     -1.95696845	     -6.77646195	     -8.62304790	      0.65637307	     -0.26734379	      2.98785110	     -7.67140876	      1.75657073	     30.04666733	     80.23755041	      3.59587910	     -7.84517348	     18.83188486	     29.42144332	     73.93126020
      0.02083330	      1.98488221	      1.11055168	      0.28144940	     -0.97320630	      1.29863943	     -0.06029991	     -1.55252663	     -3.52382938	     -2.31762902	      6.98969500	      0.12199319	      9.77755990	     -5.54116393	     -6.85205631	     -0.73807654	      0.19324189	     -2.22535192	      5.55936056	      0.09702915	      8.59079293	     -2.54251124	     -6.85205631	     -8.89242609	      0.52797386	      0.18774016	      2.85602567	     -7.61094083	      2.02156953	     30.89852528	     80.01314838	      4.01660036	     -7.93759218	     19.35997540	     29.61845361	     74.48759875
